<?xml version="1.0" encoding="UTF-8" standalone="no"?>
<!-- Created with Inkscape (http://www.inkscape.org/) -->

<svg
   xmlns:dc="http://purl.org/dc/elements/1.1/"
   xmlns:cc="http://creativecommons.org/ns#"
   xmlns:rdf="http://www.w3.org/1999/02/22-rdf-syntax-ns#"
   xmlns:svg="http://www.w3.org/2000/svg"
   xmlns="http://www.w3.org/2000/svg"
   xmlns:sodipodi="http://sodipodi.sourceforge.net/DTD/sodipodi-0.dtd"
   xmlns:inkscape="http://www.inkscape.org/namespaces/inkscape"
   width="280mm"
   height="138.996mm"
   viewBox="0 0 280 138.996"
   version="1.1"
   id="svg8"
   inkscape:version="0.92.4 (unknown)"
   sodipodi:docname="logo.svg">
  <defs
     id="defs2" />
  <sodipodi:namedview
     id="base"
     pagecolor="#ffffff"
     bordercolor="#666666"
     borderopacity="1.0"
     inkscape:pageopacity="0.0"
     inkscape:pageshadow="2"
     inkscape:zoom="0.35"
     inkscape:cx="362.20472"
     inkscape:cy="370.12374"
     inkscape:document-units="mm"
     inkscape:current-layer="layer1"
     showgrid="false"
     inkscape:window-width="1884"
     inkscape:window-height="1080"
     inkscape:window-x="36"
     inkscape:window-y="0"
     inkscape:window-maximized="1" />
  <metadata
     id="metadata5">
    <rdf:RDF>
      <cc:Work
         rdf:about="">
        <dc:format>image/svg+xml</dc:format>
        <dc:type
           rdf:resource="http://purl.org/dc/dcmitype/StillImage" />
        <dc:title></dc:title>
      </cc:Work>
    </rdf:RDF>
  </metadata>
  <g
     inkscape:label="Layer 1"
     inkscape:groupmode="layer"
     id="layer1"
     transform="translate(-10,-138.004)">
    <path
       style="fill:#000000;stroke-width:0.23278075"
       d="m 10.060704,176.28376 0.06071,-26.82565 h 24.726788 24.726789 l 1.618652,0.7279 c 1.958936,0.88093 3.692853,2.49571 4.633547,4.31518 l 0.676079,1.30765 v 8.61887 8.61888 l -0.788035,1.59541 -0.788032,1.59541 0.788032,1.57996 0.788035,1.57996 v 8.61887 8.61886 l -0.676079,1.30766 c -0.940694,1.81947 -2.674611,3.43426 -4.633547,4.31519 l -1.618652,0.7279 -24.787493,0.0617 L 10,203.10942 Z m 48.941418,20.17334 c 1.293113,-0.82543 1.380636,-1.36915 1.395184,-8.66772 0.01445,-7.23885 -0.04721,-7.59308 -1.496706,-8.60273 -0.6671,-0.46468 -0.882364,-0.47042 -19.902658,-0.53169 -12.369246,-0.0398 -19.547012,0.0196 -20.121825,0.16649 -0.491461,0.12558 -1.21096,0.54281 -1.5989,0.92706 l -0.705337,0.69863 -0.06969,7.0602 c -0.07543,7.64143 -0.03791,7.92133 1.194088,8.9055 l 0.70406,0.56243 H 38.29534 58.190348 Z m -0.101528,-24.33389 c 1.432161,-0.99756 1.511149,-1.42162 1.496718,-8.03572 -0.01456,-6.6896 -0.11711,-7.28485 -1.395184,-8.10069 l -0.811776,-0.51818 -19.734154,0.003 c -15.306076,0.003 -19.866565,0.0669 -20.324253,0.28682 -0.324554,0.15591 -0.835212,0.62879 -1.134801,1.05085 -0.534929,0.75361 -0.544712,0.88189 -0.544712,7.14483 0,7.1469 0.07455,7.51468 1.690802,8.34113 0.778451,0.39805 1.76031,0.41523 20.450338,0.35774 19.430628,-0.0597 19.63957,-0.0652 20.307022,-0.53012 z m 16.083848,13.52262 c 0,-12.05886 0.08302,-17.82488 0.268621,-18.65531 0.55464,-2.48169 2.505207,-4.99194 4.70799,-6.05882 2.30835,-1.11803 2.831211,-1.15364 16.933503,-1.15364 h 13.209094 v 3.06197 3.06196 H 97.019811 c -12.215314,0 -13.137874,0.0274 -13.897821,0.41446 -0.447696,0.22793 -1.010434,0.76219 -1.250533,1.18721 -0.41193,0.7292 -0.436548,1.75458 -0.436548,18.18417 v 17.41138 h -3.22523 -3.225236 z m 46.831398,17.09379 c -0.71949,-0.18577 -1.74452,-0.58052 -2.27781,-0.87724 -1.39358,-0.77533 -3.15436,-2.65394 -3.89651,-4.1572 l -0.64029,-1.29693 v -14.96961 -14.96962 l 0.62048,-1.24747 c 0.96288,-1.93588 2.59022,-3.48526 4.70111,-4.47594 l 1.81999,-0.85415 14.94443,-0.0707 c 10.55894,-0.05 15.36508,0.006 16.37787,0.19015 2.99217,0.54447 5.70427,2.55624 7.02453,5.21062 l 0.62048,1.24747 v 14.97438 14.97438 l -0.78068,1.50552 c -0.98887,1.90698 -3.06932,3.79139 -5.00454,4.53294 l -1.38197,0.52957 -15.40944,0.0457 c -13.01065,0.0386 -15.61309,-0.007 -16.71765,-0.29196 z m 31.48447,-6.22378 c 1.49814,-0.86715 1.47879,-0.66911 1.47879,-15.13015 0,-12.26301 -0.0282,-13.15913 -0.43654,-13.88203 -0.2401,-0.42502 -0.80285,-0.95928 -1.25054,-1.18721 -0.76211,-0.38805 -1.71662,-0.41446 -14.98056,-0.41446 -15.62533,0 -15.38012,-0.0211 -16.29528,1.40392 -0.46932,0.7308 -0.48218,1.1103 -0.48305,14.25237 -9.3e-4,14.90622 -0.0877,14.05114 1.52016,14.98196 0.7151,0.41398 1.3945,0.43334 15.20239,0.43334 14.07666,0 14.47444,-0.0126 15.24463,-0.45774 z m 20.83598,6.21978 c -2.56223,-0.65369 -4.8795,-2.4755 -6.1312,-4.82031 l -0.68341,-1.28025 v -15.08302 -15.08302 l 0.64405,-1.30477 c 1.28587,-2.60492 3.99779,-4.64489 6.85437,-5.15597 0.78724,-0.14084 7.30327,-0.23022 16.78315,-0.23022 h 15.49631 v -6.58484 c 0,-9.3413 0.19986,-9.06301 -6.5102,-9.06435 l -4.24059,-9.4e-4 v -3.06196 -3.06197 l 4.36004,0.006 c 2.39802,0.003 4.82139,0.10654 5.38528,0.23006 2.85529,0.62528 5.08449,2.33276 6.43678,4.93029 l 0.8997,1.72818 0.0633,29.10053 0.0633,29.10053 -19.05633,-0.0148 c -15.98671,-0.0126 -19.26703,-0.0687 -20.36449,-0.34867 z m 31.4585,-6.20479 c 1.55241,-0.89864 1.50485,-0.41993 1.50387,-15.13763 -9.3e-4,-12.97649 -0.014,-13.35676 -0.48304,-14.08729 -0.91488,-1.42463 -0.67537,-1.40392 -16.2395,-1.40392 -15.56412,0 -15.3246,-0.0207 -16.23949,1.40392 -0.46914,0.73053 -0.48217,1.1108 -0.48304,14.08729 -9.4e-4,14.7177 -0.0486,14.23899 1.50386,15.13763 0.73633,0.42624 1.30371,0.44275 15.21868,0.44275 13.91496,0 14.48232,-0.0165 15.21866,-0.44275 z m 13.92789,4.75389 v -1.81451 h 1.91124 1.91125 v 1.81451 1.81449 h -1.91125 -1.91124 z m 13.37874,1.45342 c -1.0817,-0.44413 -2.29616,-1.55696 -2.94753,-2.7009 -0.49809,-0.87473 -0.51939,-1.20394 -0.59418,-9.1859 -0.0896,-9.56812 -0.0233,-10.10092 1.45491,-11.69532 1.82693,-1.97045 1.30596,-1.90276 14.6891,-1.90843 l 11.76613,-0.006 v 1.8145 1.8145 l -11.40778,0.007 c -12.29463,0.008 -11.97686,-0.0232 -12.47345,1.2168 -0.33543,0.8376 -0.33543,15.31297 0,16.15059 0.4966,1.24001 0.17883,1.20902 12.47345,1.21679 l 11.40778,0.007 v 1.8145 1.81451 l -11.76613,-0.008 c -9.96379,-0.007 -11.89421,-0.0615 -12.6023,-0.35219 z m 33.00181,0.0506 c -1.21168,-0.41628 -2.53394,-1.58099 -3.10556,-2.73548 -0.4945,-0.99874 -0.5108,-1.31402 -0.5108,-9.88229 0,-8.52435 0.0186,-8.88806 0.50281,-9.86614 0.56177,-1.13462 1.80879,-2.27937 2.99603,-2.75032 0.62192,-0.24671 2.74647,-0.31158 10.17087,-0.31057 5.45901,5.6e-4 9.74105,0.0952 10.23654,0.2259 1.18412,0.3123 2.6963,1.60745 3.29967,2.82612 0.48982,0.98924 0.50721,1.32697 0.50721,9.84484 0,9.57016 -0.007,9.62801 -1.3551,11.14901 -0.36085,0.40712 -1.19802,0.97981 -1.86036,1.27263 -1.20175,0.53128 -1.22427,0.53237 -10.6411,0.51737 -6.77792,-0.0112 -9.66316,-0.0929 -10.24021,-0.29107 z m 19.68787,-3.87518 0.5864,-0.55672 v -8.18587 -8.18586 l -0.5864,-0.55671 -0.58643,-0.55673 h -8.9525 -8.95247 l -0.49517,0.59762 c -0.48006,0.57939 -0.49516,0.84598 -0.49516,8.74257 v 8.14498 l 0.5864,0.55672 0.58643,0.55673 h 8.86124 8.86123 z"
       id="path3826"
       inkscape:connector-curvature="0" />
    <path
       id="path3847"
       style="opacity:0.2;fill:#000000;stroke-width:0.23278074"
       d="m 10.703511,211.89448 0.06072,26.82567 0.06071,26.82555 h 24.726772 24.726783 l 1.618601,-0.72785 c 1.958936,-0.88091 3.692937,-2.49567 4.633634,-4.31514 l 0.67603,-1.30769 v -8.61889 -8.61889 l -0.788081,-1.5954 -0.787962,-1.5954 0.787962,-1.57988 0.788081,-1.58003 v -8.61888 -8.61887 l -0.67603,-1.30759 c -0.940697,-1.81947 -2.674698,-3.43434 -4.633634,-4.31528 l -1.618601,-0.72784 -24.787493,-0.0617 z m 64.984475,0.01 v 17.45332 c 0,12.05887 0.08299,17.82493 0.268587,18.65536 0.554639,2.4817 2.505156,4.99192 4.707934,6.0588 2.308355,1.11802 2.831188,1.1537 16.93348,1.1537 h 13.209123 v -3.06204 -3.06193 H 97.723265 c -12.215315,0 -13.137819,-0.0275 -13.897771,-0.41454 -0.447691,-0.22795 -1.010489,-0.76207 -1.250594,-1.1871 -0.411931,-0.7292 -0.436543,-1.75461 -0.436543,-18.1842 v -17.41137 h -3.225185 z m 138.572574,0 -19.05631,0.0148 c -15.9867,0.0126 -19.26703,0.0687 -20.3645,0.34877 v -1.2e-4 c -2.56224,0.65367 -4.87946,2.47552 -6.13118,4.82034 l -0.68335,1.28017 v 15.08308 15.08295 l 0.64404,1.30481 c 1.28586,2.60495 3.99776,4.64495 6.85434,5.15603 0.78724,0.14085 7.30332,0.23022 16.7832,0.23022 h 15.4963 v 6.58478 c 0,9.3413 0.19982,9.06298 -6.51024,9.06433 l -4.24062,9.3e-4 v 3.0622 V 277 l 4.36013,-0.006 c 2.39801,-0.003 4.82127,-0.10668 5.38515,-0.2301 2.85529,-0.62529 5.0845,-2.3327 6.43679,-4.93024 l 0.89977,-1.72825 0.0633,-29.10047 z m -82.96921,0.0567 c -6.27258,0.01 -7.94365,0.089 -8.77205,0.30285 -0.71951,0.18576 -1.74451,0.58045 -2.27781,0.87717 -1.39356,0.77533 -3.15438,2.65391 -3.89653,4.15718 l -0.6402,1.29699 v 14.96958 14.96958 l 0.62049,1.24747 c 0.96287,1.93588 2.5902,3.48537 4.70108,4.47603 l 1.81998,0.85406 14.94446,0.0707 c 10.55893,0.0499 15.365,-0.006 16.3778,-0.19008 2.99216,-0.54447 5.7043,-2.55634 7.02457,-5.21071 l 0.62048,-1.24748 v -14.97438 -14.97439 l -0.78063,-1.50547 c -0.98888,-1.90699 -3.06943,-3.79133 -5.00465,-4.53289 l -1.38188,-0.52959 -15.40949,-0.0457 c -3.25266,-0.01 -5.85476,-0.0142 -7.94562,-0.0112 z m 136.55866,1.64265 c -0.0845,0.0298 -0.17206,0.0594 -0.2598,0.0893 -0.0384,0.12558 -0.0326,0.1929 0.052,0.1155 0.0717,-0.0656 0.14045,-0.13454 0.20787,-0.20487 z m -0.52768,0.72724 c 5.6e-4,0.01 9.4e-4,0.0207 0.002,0.0311 9.3e-4,1.3e-4 0.003,2.6e-4 0.006,3.8e-4 -0.003,-0.01 -0.005,-0.021 -0.007,-0.0315 z m 7.31301,0.23288 c -0.008,4e-5 -0.016,6e-5 -0.0241,1.2e-4 0.021,5.6e-4 0.042,9.4e-4 0.0631,0.003 0.0126,1.3e-4 -0.026,-0.002 -0.039,-0.003 z m -1.127,0.0608 c -0.006,5.6e-4 -0.01,9.3e-4 -0.0155,0.003 0.26797,0.0596 0.53596,0.11942 0.80395,0.17901 0.0301,0.01 0.1204,0.0401 0.0902,0.0304 -0.14812,-0.0478 -0.29201,-0.1106 -0.44389,-0.1444 -0.14313,-0.0319 -0.28894,-0.0497 -0.43473,-0.067 z M 19.10383,218.0285 h 19.895008 19.895014 l 0.81177,0.51819 c 1.293113,0.82542 1.380669,1.36924 1.395218,8.66781 0.01445,7.23887 -0.04715,7.59299 -1.496695,8.60264 -0.6671,0.46468 -0.882403,0.47051 -19.902703,0.53177 -12.36924,0.0398 -19.547068,-0.0196 -20.12188,-0.16652 -0.491457,-0.12558 -1.21095,-0.54282 -1.598884,-0.92707 l -0.705247,-0.69862 -0.06973,-7.06016 c -0.07543,-7.64144 -0.03791,-7.92132 1.194088,-8.90549 z m 119.65536,0.002 c 14.07666,0 14.47447,0.0126 15.24467,0.4577 1.49814,0.86715 1.47877,0.66916 1.47877,15.1302 0,12.26301 -0.0281,13.15913 -0.43653,13.88202 -0.2401,0.42504 -0.8029,0.95918 -1.25061,1.18712 -0.76211,0.38803 -1.71657,0.41454 -14.98052,0.41454 -15.62532,0 -15.38016,0.021 -16.29532,-1.40401 -0.46931,-0.7308 -0.4822,-1.11025 -0.48306,-14.2523 -9.4e-4,-14.90623 -0.0877,-14.05115 1.52013,-14.98197 0.71511,-0.41398 1.3946,-0.4333 15.20247,-0.4333 z m 52.32046,0 c 13.91496,0 14.48224,0.0165 15.21858,0.44267 1.55241,0.89864 1.5049,0.41995 1.50391,15.13766 -9.4e-4,12.97648 -0.014,13.35672 -0.48308,14.08724 -0.91488,1.42464 -0.67528,1.40401 -16.23941,1.40401 -15.56412,0 -15.32465,0.0205 -16.23953,-1.40401 -0.46914,-0.73052 -0.48221,-1.11076 -0.48308,-14.08724 -9.3e-4,-14.71771 -0.0484,-14.23902 1.50391,-15.13766 0.73633,-0.42624 1.30374,-0.44267 15.2187,-0.44267 z m 42.7905,3.07863 c -0.22897,0.17972 -0.46394,0.36446 -0.73349,0.57828 -0.21861,0.1734 0.34352,-0.0703 0.72832,-0.2616 9.4e-4,-0.10808 0.003,-0.21062 0.006,-0.31668 z m 32.94267,2.14603 c -0.0315,0.0146 -0.0631,0.0286 -0.0945,0.0437 -0.11886,0.0569 -0.0504,0.0598 0.0945,0.0383 z m -41.98318,12.55701 c 5.6e-4,0.0162 -0.003,0.0238 0,0 z m -196.503388,6.51404 c 2.732498,0 6.298359,0.01 10.97087,0.0244 19.430606,0.0597 19.639452,0.0652 20.306905,0.53021 1.432155,0.99755 1.511244,1.42157 1.496813,8.03566 -0.01456,6.6896 -0.117152,7.28488 -1.395218,8.10071 l -0.81177,0.51818 -19.734148,-0.003 c -15.306071,-0.003 -19.86656,-0.0669 -20.324215,-0.28686 -0.324559,-0.15592 -0.835228,-0.62872 -1.134817,-1.05079 -0.534934,-0.75359 -0.544746,-0.88184 -0.544746,-7.14478 0,-7.1469 0.07449,-7.51473 1.690741,-8.34118 0.583839,-0.29853 1.282092,-0.38282 9.479585,-0.38207 z"
       inkscape:connector-curvature="0" />
  </g>
</svg>
